<svg fill="#F43F5E" version="1.0" xmlns="http://www.w3.org/2000/svg" viewBox="0 0 182.000000 182.000000" preserveAspectRatio="xMidYMid meet" class="fill-current text-red-500 max-w-xs"><g transform="translate(0.000000,182.000000) scale(0.100000,-0.100000)"><path d="M137 1545 c-3 -63 -11 -124 -17 -134 -7 -14 -6 -27 5 -48 8 -15 27 -55 42 -88 26 -59 155 -258 196 -302 11 -13 30 -23 41 -23 29 0 103 -38 110 -57 4 -9 7 -69 7 -134 0 -89 4 -121 15 -130 11 -9 14 -55 14 -240 0 -225 5 -258 33 -230 7 7 10 83 8 235 -2 219 -1 225 19 236 11 6 40 10 63 8 l42 -3 -5 -150 c-8 -292 -8 -310 15 -310 19 0 20 10 30 227 7 147 15 232 22 239 7 7 61 14 135 17 100 4 126 2 136 -10 7 -10 14 -86 20 -224 4 -115 11 -215 16 -222 4 -6 14 -12 22 -12 12 0 13 25 6 167 -4 93 -7 197 -7 233 l0 65 54 3 c30 2 58 -1 64 -7 5 -5 13 -59 18 -120 5 -61 13 -161 18 -221 9 -115 14 -131 33 -112 8 8 8 61 -1 204 -7 106 -14 206 -17 221 -5 23 -2 29 15 34 20 5 21 12 21 104 0 98 0 99 40 161 23 34 44 65 48 68 4 3 27 32 52 65 25 33 50 66 57 75 64 80 73 94 64 103 -5 5 -22 5 -43 -2 -57 -19 -159 -41 -187 -41 -15 0 -42 13 -62 30 -38 31 -49 30 -49 -3 0 -16 -5 -18 -27 -14 -16 3 -36 9 -45 12 -35 14 -28 -23 17 -91 50 -77 56 -101 23 -108 -13 -3 -122 -7 -243 -10 -121 -3 -247 -10 -280 -15 -33 -6 -67 -8 -75 -6 -15 5 -50 74 -178 346 -54 114 -134 236 -156 238 -5 1 -31 21 -57 46 -26 25 -52 45 -57 45 -5 0 -12 -52 -15 -115z"></path></g></svg>